<svg height="479pt" viewBox="0 -47 479.92 479" width="479pt" xmlns="http://www.w3.org/2000/svg"><path d="m360 40.464844v208c0 44.183594-35.816406 80-80 80h-144c-44.183594 0-80-35.816406-80-80v-208" fill="#ff3314"/><path d="m56 64.464844h16c8.835938 0 16 7.164062 16 16v22.640625c-.300781 13.125 9.640625 24.226562 22.71875 25.359375 6.585938.351562 13.023438-2.019532 17.804688-6.558594s7.484374-10.847656 7.476562-17.441406v94.800781c-.21875 13.0625 9.707031 24.070313 22.71875 25.199219 6.585938.351562 13.023438-2.019532 17.804688-6.558594s7.484374-10.847656 7.476562-17.441406v-126.957032c-.191406-8.058593 5.449219-15.085937 13.359375-16.640624 4.679687-.785157 9.464844.550781 13.0625 3.640624 3.601563 3.089844 5.644531 7.617188 5.578125 12.359376 0 13.253906 10.746094 24 24 24s24-10.746094 24-24v30.640624c-.089844 12.96875 9.796875 23.832032 22.71875 24.957032 6.585938.351562 13.023438-2.019532 17.804688-6.558594s7.484374-10.847656 7.476562-17.441406v-24c0-8.835938 7.164062-16 16-16h14.640625c6.390625-.011719 12.558594-2.34375 17.359375-6.558594v-17.441406h-304zm0 0" fill="#b21800"/><path d="m248 296.464844c-88.367188 0-160-71.632813-160-160v-96h-32v208c0 44.183594 35.816406 80 80 80h144c25.179688 0 48.890625-11.855469 64-32zm0 0" fill="#b21800"/><path d="m344 40.464844v208c0 44.183594-35.816406 80-80 80h16c44.183594 0 80-35.816406 80-80v-208zm0 0" fill="#ff7561"/><path d="m8 328.464844h400v16c0 17.675781-14.328125 32-32 32h-336c-17.671875 0-32-14.324219-32-32zm0 0" fill="#39b99b"/><path d="m392 72.464844h-32v40h32c22.089844 0 40 17.910156 40 40v16c0 22.09375-17.910156 40-40 40h-32v40h32c44.183594 0 80-35.816406 80-80v-16c0-44.179688-35.816406-80-80-80zm0 0" fill="#ff3314"/><path d="m392 240.464844h-32v8h32c44.183594 0 80-35.816406 80-80v-8c0 44.183594-35.816406 80-80 80zm0 0" fill="#b21800"/><path d="m432 152.464844v-8c0-22.089844-17.910156-40-40-40h-32v8h32c22.089844 0 40 17.910156 40 40zm0 0" fill="#b21800"/><path d="m392 72.464844h-32v8h24c44.183594 0 80 35.820312 80 80v16c.050781 19.269531-6.917969 37.898437-19.601562 52.402344 17.519531-15.183594 27.585937-37.21875 27.601562-60.402344v-16c0-44.179688-35.816406-80-80-80zm0 0" fill="#ff7561"/><path d="m360 8.464844h-302.640625c-13.105469-.296875-24.183594 9.65625-25.28125 22.722656-.351563 6.582031 2.023437 13.019531 6.5625 17.804688 4.539063 4.78125 10.847656 7.484374 17.4375 7.472656h32c8.839844 0 16 7.164062 16 16v22.640625c-.304687 13.097656 9.597656 24.183593 22.640625 25.359375 6.585938.351562 13.023438-2.019532 17.804688-6.558594s7.484374-10.847656 7.476562-17.441406v94.800781c-.21875 13.0625 9.707031 24.070313 22.71875 25.199219 6.585938.351562 13.023438-2.019532 17.804688-6.558594s7.484374-10.847656 7.476562-17.441406v-126.957032c-.191406-8.058593 5.449219-15.085937 13.359375-16.640624 4.679687-.785157 9.464844.550781 13.0625 3.640624 3.601563 3.089844 5.644531 7.617188 5.578125 12.359376 0 13.253906 10.746094 24 24 24s24-10.746094 24-24v30.640624c-.089844 12.96875 9.796875 23.832032 22.71875 24.957032 6.585938.351562 13.023438-2.019532 17.804688-6.558594s7.484374-10.847656 7.476562-17.441406v-24c0-8.835938 7.164062-16 16-16h14.640625c13.109375.265625 24.183594-9.660156 25.359375-22.71875.351562-6.582032-2.019531-13.023438-6.558594-17.804688-4.542968-4.78125-10.847656-7.484375-17.441406-7.476562zm0 0" fill="#d5ad56"/><path d="m360 8.464844h-302.640625c-10.921875.042968-20.589844 7.066406-24 17.441406 2.578125-.890625 5.277344-1.378906 8-1.441406h302.640625c6.59375-.007813 12.898438 2.695312 17.441406 7.476562 4.539063 4.78125 6.910156 11.222656 6.558594 17.804688-.109375 1.792968-.433594 3.5625-.960938 5.28125 9.519532-2.894532 16.265626-11.359375 16.960938-21.28125.351562-6.582032-2.019531-13.023438-6.558594-17.804688-4.542968-4.78125-10.847656-7.484375-17.441406-7.476562zm0 0" fill="#f8e19f"/><g fill="#95793c"><path d="m190.71875 208.464844c-13.042969-1.132813-22.976562-12.1875-22.71875-25.277344v-94.722656c0-4.417969-3.582031-8-8-8s-8 3.582031-8 8v102.800781c-.316406 12.164063 8.152344 22.792969 20.078125 25.199219 8.175781 1.277344 16.425781-1.746094 21.84375-8-1.066406.082031-2.136719.082031-3.203125 0zm0 0"/><path d="m142.71875 112.464844c-13.042969-1.132813-22.976562-12.1875-22.71875-25.277344v-22.722656c0-8.835938-7.164062-16-16-16h-40c-14.167969.609375-26.96875-8.386719-31.199219-21.917969-.402343 1.515625-.644531 3.070313-.722656 4.640625-.351563 6.582031 2.023437 13.019531 6.5625 17.804688 4.539063 4.78125 10.847656 7.484374 17.4375 7.472656h32c8.839844 0 16 7.164062 16 16v22.640625c-.304687 13.097656 9.597656 24.183593 22.640625 25.359375 7.285156.390625 14.347656-2.554688 19.203125-8-1.066406.082031-2.136719.082031-3.203125 0zm0 0"/><path d="m272 80.464844c-13.253906 0-24-10.742188-24-24 .066406-4.742188-1.976562-9.269532-5.578125-12.359375-3.597656-3.089844-8.382813-4.421875-13.0625-3.640625-4.753906.777344-8.871094 3.738281-11.121094 8 7.953125 1.125 13.839844 7.96875 13.761719 16 0 13.257812 10.746094 24 24 24 6.839844.011718 13.359375-2.898438 17.921875-8-.640625.039062-1.28125.039062-1.921875 0zm0 0"/><path d="m318.71875 112.464844c-13.042969-1.132813-22.976562-12.1875-22.71875-25.277344v-30.722656c0-4.417969-3.582031-8-8-8s-8 3.582031-8 8v38.640625c-.300781 13.125 9.640625 24.226562 22.71875 25.359375 7.285156.390625 14.347656-2.554688 19.203125-8-1.066406.082031-2.136719.082031-3.203125 0zm0 0"/></g><path d="m376 360.464844h-336c-17.671875 0-32-14.324219-32-32v16c0 17.675781 14.328125 32 32 32h336c17.671875 0 32-14.324219 32-32v-16c0 17.675781-14.328125 32-32 32zm0 0" fill="#018667"/><path d="m152 288.464844c0-4.417969-3.582031-8-8-8-22.089844 0-40-17.90625-40-40 0-4.417969-3.582031-8-8-8s-8 3.582031-8 8c0 30.929687 25.070312 56 56 56 4.417969 0 8-3.582032 8-8zm0 0" fill="#232323"/><path d="m392 64.464844h-24v-1.4375c14.890625-4.574219 24.324219-19.199219 22.347656-34.648438-1.976562-15.453125-14.789062-27.234375-30.347656-27.914062h-302.640625c-17.386719-.34375-32.007813 12.976562-33.28125 30.320312-.546875 8.863282 2.609375 17.558594 8.722656 24 4.117188 4.328125 9.394531 7.382813 15.199219 8.800782v48.878906c0 4.417968 3.582031 8 8 8s8-3.582032 8-8v-48h24c4.417969 0 8 3.582031 8 8v22.640625c-.386719 17.421875 12.941406 32.085937 30.320312 33.359375 6.179688.328125 12.320313-1.144532 17.679688-4.238282v66.960938c-.34375 17.386719 12.976562 32.007812 30.320312 33.277344h1.679688c17.671875 0 32-14.324219 32-32v-24c0-4.417969-3.582031-8-8-8s-8 3.582031-8 8v24c0 4.328125-1.75 8.472656-4.855469 11.488281s-7.296875 4.644531-11.625 4.511719c-8.777343-.992188-15.339843-8.527344-15.121093-17.359375v-94.640625c0-4.417969-3.582032-8-8-8-4.417969 0-8 3.582031-8 8 .007812 4.382812-1.785157 8.578125-4.957032 11.601562-3.195312 3.050782-7.511718 4.640625-11.921875 4.398438-8.777343-.992188-15.339843-8.527344-15.121093-17.359375v-22.640625c0-13.253906-10.742188-24-24-24h-32c-4.382813.007812-8.574219-1.785156-11.597657-4.957032-3.050781-3.195312-4.640625-7.511718-4.402343-11.921874.980468-8.625 8.28125-15.132813 16.960937-15.121094h302.640625c4.382812-.003906 8.574219 1.789062 11.601562 4.960937 3.046876 3.195313 4.640626 7.511719 4.398438 11.921875-.992188 8.777344-8.527344 15.339844-17.359375 15.117188h-14.640625c-13.253906 0-24 10.746094-24 24v24c.003906 4.382812-1.789062 8.578125-4.960938 11.601562-3.097656 2.945313-7.246093 4.53125-11.519531 4.398438-8.777343-.992188-15.339843-8.527344-15.121093-17.359375v-30.640625c0-4.417969-3.582032-8-8-8-4.417969 0-8 3.582031-8 8 0 8.839844-7.160157 16-16 16-8.835938 0-16-7.160156-16-16-.140626-7.0625-3.390626-13.707032-8.878907-18.160156-5.398437-4.574219-12.539062-6.539063-19.519531-5.359376-11.726562 2.28125-20.140625 12.617188-20 24.5625v54.957032c0 4.417968 3.582031 8 8 8s8-3.582032 8-8v-54.957032c-.15625-4.140624 2.617188-7.816406 6.640625-8.800781 2.351563-.394531 4.757813.277344 6.558594 1.839844 1.777343 1.519531 2.800781 3.742187 2.800781 6.078125.011719 11.429688 6.117188 21.980469 16.015625 27.691406 9.898437 5.707032 22.089844 5.703125 31.984375-.011718v2.960937c-.300781 17.359375 13.007812 31.929687 30.320312 33.199219 8.773438.460937 17.351563-2.703125 23.722657-8.753906 6.367187-6.054688 9.96875-14.457032 9.957031-23.246094v-24c0-4.417969 3.582031-8 8-8h8v144c0 4.417968 3.582031 8 8 8h32c26.507812 0 48-21.488282 48-48v-16c0-26.507813-21.492188-48-48-48h-24v-24h24c39.765625 0 72 32.238281 72 72v16c0 39.765625-32.234375 72-72 72h-32c-4.417969 0-8 3.582031-8 8 0 39.765625-32.234375 72-72 72h-144c-39.765625 0-72-32.234375-72-72v-88c0-4.417969-3.582031-8-8-8s-8 3.582031-8 8v88c.042969 28.695312 14.078125 55.566406 37.601562 72h-77.601562c-4.417969 0-8 3.582031-8 8v16c0 22.09375 17.910156 40 40 40h336c22.089844 0 40-17.90625 40-40v-16c0-4.417969-3.582031-8-8-8h-77.519531c21.144531-14.859375 34.691406-38.261719 37.039062-64h24.402344c48.597656 0 88-39.398438 88-88v-16c0-48.566406-39.351563-87.953125-87.921875-88zm0 56c17.671875 0 32 14.328125 32 32v16c0 17.675781-14.328125 32-32 32h-24v-80zm8 216v8c0 13.257812-10.746094 24-24 24h-336c-13.253906 0-24-10.742188-24-24v-8zm0 0" fill="#232323"/></svg>