<svg height="512pt" viewBox="0 0 512 512" width="512pt" xmlns="http://www.w3.org/2000/svg"><path d="m341.019531 98.738281h-170.039062s-.828125 41.386719-20.050781 77.316407c-7.378907 13.792968.164062 30.832031 15.253906 34.890624 19.15625 5.152344 48.195312 9.96875 89.816406 9.96875s70.660156-4.816406 89.816406-9.96875c15.089844-4.058593 22.632813-21.097656 15.253906-34.890624-19.222656-35.929688-20.050781-77.316407-20.050781-77.316407zm0 0" fill="#ff4a0d"/><path d="m301.371094 241.238281h-92.207032c-32.519531 0-31.078124-31.128906-31.078124-31.128906 0-24.605469 19.914062-44.554687 44.484374-44.554687h65.394532c24.570312 0 44.488281 19.949218 44.488281 44.554687 0 0 1.4375 31.128906-31.082031 31.128906zm0 0" fill="#60daa8"/><path d="m265.617188 189.964844h-20.695313c-37.707031 0-68.277344-30.570313-68.277344-68.277344v-35.554688c0-43.421874 35.203125-78.621093 78.625-78.621093s78.621094 35.199219 78.621094 78.621093v35.554688c0 37.707031-30.566406 68.277344-68.273437 68.277344zm0 0" fill="#ffddcf"/><path d="m255.269531 7.511719c36.363281 0 66.949219 24.730469 75.933594 58.3125 0 0 3.585937 17.925781 14.480469 33.816406 5.242187 7.644531.097656 18.121094-9.144532 18.738281-89.007812 5.929688-121.042968-99.550781-121.179687-99.980468 11.703125-6.917969 25.339844-10.886719 39.910156-10.886719zm0 0" fill="#ff6e42"/><path d="m255.269531 7.511719c-36.367187 0-66.949219 24.730469-75.933593 58.3125 0 0-3.589844 17.925781-14.484376 33.816406-5.242187 7.644531-.097656 18.121094 9.144532 18.738281 89.007812 5.929688 121.042968-99.550781 121.179687-99.980468-11.699219-6.917969-25.335937-10.886719-39.90625-10.886719zm0 0" fill="#ff8f71"/><path d="m130.859375 463.058594h-91.199219c-32.160156 0-30.738281-31.128906-30.738281-31.128906 0-24.605469 19.699219-44.550782 44-44.550782h64.679687c24.296876 0 43.996094 19.945313 43.996094 44.550782 0 0 1.421875 31.128906-30.738281 31.128906zm0 0" fill="#ffbe73"/><path d="m95.496094 411.785156h-20.46875c-37.296875 0-67.527344-30.230468-67.527344-67.527344v-37.164062c0-42.945312 34.8125-77.761719 77.761719-77.761719 42.945312 0 77.757812 34.816407 77.757812 77.761719v37.164062c0 37.292969-30.230469 67.527344-67.523437 67.527344zm0 0" fill="#ffddcf"/><path d="m85.261719 229.332031c11.375 0 22.171875 2.441407 31.910156 6.839844.085937 1.007813 6.617187 81.617187-109.671875 89.535156v-18.496093c0-43.011719 34.8125-77.878907 77.761719-77.878907zm0 0" fill="#516980"/><path d="m85.261719 229.332031c-11.378907 0-22.171875 2.441407-31.914063 6.839844-.085937 1.007813-6.617187 81.617187 109.671875 89.535156v-18.496093c0-43.011719-34.8125-77.878907-77.757812-77.878907zm0 0" fill="#6a829a"/><path d="m400.652344 393.492188c0-24.003907-19.429688-43.464844-43.394532-43.464844-23.96875 0-43.398437 19.460937-43.398437 43.464844 0 24.003906 19.429687 43.460937 43.398437 43.460937 23.964844 0 43.394532-19.457031 43.394532-43.460937zm0 0" fill="#dd6642"/><path d="m472.339844 463.058594h-91.199219c-32.160156 0-30.738281-31.128906-30.738281-31.128906 0-24.605469 19.699218-44.550782 43.996094-44.550782h64.679687c24.300781 0 44 19.945313 44 44.550782 0 0 1.421875 31.128906-30.738281 31.128906zm0 0" fill="#a4e7ff"/><path d="m436.972656 411.785156h-20.46875c-37.292968 0-67.523437-30.230468-67.523437-67.527344v-37.164062c0-42.945312 34.8125-77.761719 77.757812-77.761719 42.945313 0 77.761719 34.816407 77.761719 77.761719v37.164062c0 37.292969-30.230469 67.527344-67.527344 67.527344zm0 0" fill="#ffddcf"/><path d="m442.914062 231.023438 2.511719 38.304687s16.9375 40.617187 59.074219 42.101563v-4.21875c0-37.453126-26.402344-68.730469-61.585938-76.1875zm0 0" fill="#dd6642"/><path d="m483.261719 253.730469c-14.175781-15.027344-34.25-24.398438-56.523438-24.398438-42.945312 0-77.757812 34.867188-77.757812 77.878907v11.445312c112.675781 22.859375 134.078125-64.074219 134.28125-64.925781zm0 0" fill="#e7896e"/><g fill="#b0f0ef"><path d="m107.621094 127.367188c-.363282-6.535157-4.910156-12.082032-11.238282-13.710938l-37.230468-9.585938c-8.019532-2.070312-16.429688 2.714844-18.261719 10.808594-3.972656 17.527344 14.894531 19.347656 14.894531 19.347656-23.164062 22.371094-29.566406 50.835938-29.914062 52.449219-1.742188 8.109375 3.339844 16.464844 11.507812 17.847657 9.769532 1.660156 16.304688-4.476563 17.820313-11.523438.058593-.28125 4.847656-21.5625 21.910156-37.617188 0 0-1.722656 19.464844 14.921875 19.464844 8.144531 0 14.828125-6.535156 14.988281-14.726562.003907 0 .625-32.375.601563-32.753906zm0 0"/><path d="m442.472656 208.265625c6.085938 2.386719 13.011719.554687 17.125-4.53125l24.195313-29.914063c5.21875-6.445312 4.371093-16.09375-2.214844-21.128906-14.257813-10.910156-23.761719 5.511719-23.761719 5.511719-10.671875-30.402344-33.855468-48.082031-35.175781-49.066406-6.636719-4.964844-16.335937-3.8125-20.992187 3.050781-5.570313 8.210938-2.71875 16.714844 3.046874 21.027344.234376.171875 17.558594 13.386718 25.039063 35.605468 0 0-16.957031-9.667968-23.882813 5.488282-3.390624 7.421875-.238281 16.226562 7.132813 19.78125 0 0 29.132813 14.039062 29.488281 14.175781zm0 0"/><path d="m218.085938 436.742188c-6.195313 2.082031-10.332032 7.945312-10.222657 14.488281l.632813 38.492187c.132812 8.292969 6.96875 15.148438 15.246094 14.773438 17.925781-.808594 14.679687-19.511719 14.679687-19.511719 27.675781 16.445313 56.78125 15.085937 58.425781 14.996094 8.269532-.464844 14.964844-7.585938 14.136719-15.84375-.992187-9.875-8.632813-14.558594-15.820313-14.15625-.285156.015625-22.042968 1.027343-42.019531-11.195313 0 0 19.195313-3.492187 14.785157-19.566406-2.15625-7.867188-10.21875-12.589844-18.148438-10.574219-.003906 0-31.335938 7.976563-31.695312 8.097657zm0 0"/></g><path d="m255.269531 144.730469c7.136719 0 13.738281-3.570313 17.660157-9.542969 2.273437-3.46875 1.308593-8.125-2.152344-10.402344-1.269532-.835937-6.882813-3-10.386719 2.152344-1.679687 2.46875-4.128906 2.769531-5.121094 2.769531-.996093 0-3.484375-.269531-5.125-2.769531-2.273437-3.464844-6.921875-4.429688-10.382812-2.152344-3.464844 2.277344-4.425781 6.933594-2.152344 10.402344 3.917969 5.972656 10.519531 9.542969 17.660156 9.542969zm0 0"/><path d="m132.148438 336.28125c-4.097657 0-7.417969 3.363281-7.417969 7.511719v12.46875c0 4.148437 3.320312 7.511719 7.417969 7.511719 4.097656 0 7.417968-3.363282 7.417968-7.511719v-12.46875c0-4.148438-3.320312-7.511719-7.417968-7.511719zm0 0"/><path d="m38.371094 336.28125c-4.09375 0-7.417969 3.363281-7.417969 7.511719v12.46875c0 4.148437 3.324219 7.511719 7.417969 7.511719 4.097656 0 7.417968-3.363282 7.417968-7.511719v-12.46875c0-4.148438-3.320312-7.511719-7.417968-7.511719zm0 0"/><path d="m100.597656 346.605469c-1.253906-.835938-6.804687-2.996094-10.269531 2.152343-1.664063 2.472657-4.085937 2.769532-5.066406 2.769532-.984375 0-3.445313-.269532-5.066407-2.769532-2.25-3.464843-6.851562-4.429687-10.273437-2.152343-3.425781 2.277343-4.375 6.933593-2.125 10.402343 3.875 5.976563 10.402344 9.542969 17.464844 9.542969 7.058593 0 13.589843-3.566406 17.464843-9.542969 2.25-3.46875 1.296876-8.125-2.128906-10.402343zm0 0"/><path d="m473.628906 336.28125c-4.097656 0-7.417968 3.363281-7.417968 7.511719v12.46875c0 4.148437 3.316406 7.511719 7.417968 7.511719 4.09375 0 7.417969-3.363282 7.417969-7.511719v-12.46875c0-4.148438-3.320313-7.511719-7.417969-7.511719zm0 0"/><path d="m379.851562 336.28125c-4.097656 0-7.417968 3.363281-7.417968 7.511719v12.46875c0 4.148437 3.320312 7.511719 7.417968 7.511719 4.097657 0 7.417969-3.363282 7.417969-7.511719v-12.46875c0-4.148438-3.320312-7.511719-7.417969-7.511719zm0 0"/><path d="m442.078125 346.605469c-1.253906-.835938-6.804687-2.996094-10.269531 2.152343-1.664063 2.472657-4.085938 2.769532-5.070313 2.769532-.980469 0-3.445312-.269532-5.066406-2.769532-2.25-3.464843-6.847656-4.429687-10.269531-2.152343-3.425782 2.277343-4.378906 6.933593-2.128906 10.402343 3.875 5.976563 10.40625 9.542969 17.464843 9.542969 7.0625 0 13.589844-3.566406 17.464844-9.542969 2.25-3.46875 1.300781-8.125-2.125-10.402343zm0 0"/><path d="m85.261719 221.820312c-47.015625 0-85.261719 38.308594-85.261719 85.390626v36.945312c0 18.796875 6.945312 35.992188 18.378906 49.183594-10.6875 9.777344-16.925781 23.683594-16.957031 38.472656-.054687 2.105469-.074219 17.230469 10.253906 28.054688 6.773438 7.101562 16.1875 10.703124 27.984375 10.703124h91.199219c11.796875 0 21.210937-3.601562 27.984375-10.703124 10.328125-10.824219 10.308594-25.953126 10.253906-28.054688-.03125-14.898438-6.246094-28.726562-16.949218-38.484375 11.429687-13.1875 18.371093-30.378906 18.371093-49.171875v-36.945312c0-47.082032-38.246093-85.390626-85.257812-85.390626zm-38.835938 26.789063c1.476563 11.492187 6.101563 28.828125 19.886719 44.933594 2.035156 2.375 4.207031 4.644531 6.496094 6.8125-15.101563 9.003906-34.480469 14.753906-57.808594 17.160156v-10.304687c0-24.429688 12.5-45.980469 31.425781-58.601563zm107.671875 183.320313c0 .085937.75 23.617187-23.238281 23.617187h-91.199219c-22.902344 0-23.238281-23.5-23.238281-23.617187 0-10.957032 4.761719-21.238282 12.898437-28.246094 12.667969 9.777344 28.515626 15.613281 45.707032 15.613281h20.46875c17.191406 0 33.039062-5.835937 45.707031-15.617187 8.148437 6.996093 12.894531 17.210937 12.894531 28.25zm-58.601562-27.65625h-20.46875c-33.097656 0-60.027344-26.96875-60.027344-60.117188v-11.535156c28.644531-2.769532 52.210938-10.273438 70.230469-22.355469 17.976562 12.09375 41.5 19.582031 70.289062 22.355469v11.535156c0 33.148438-26.925781 60.117188-60.023437 60.117188zm60.023437-86.742188c-35.523437-3.640625-61.652343-14.953125-77.734375-33.667969-14.0625-16.367187-16.589844-34.457031-16.960937-42.621093 7.613281-2.839844 15.847656-4.398438 24.4375-4.398438 38.742187 0 70.257812 31.566406 70.257812 70.367188zm0 0"/><path d="m209.164062 248.75h92.207032c11.96875 0 21.5-3.636719 28.339844-10.808594 5.25-5.507812 7.820312-12.105468 9.074218-17.535156 15.113282-3.578125 26.128906-11.390625 30.023438-20.40625 3.855468-8.925781 3.445312-18.945312-1.128906-27.492188-9.917969-18.539062-14.722657-38.695312-17.050782-53.484374 8.191406-9.277344 5.230469-17.808594 1.238282-23.636719-9.839844-14.347657-13.28125-30.882813-13.3125-31.039063s-.066407-.3125-.109376-.46875c-5.765624-21.550781-27.523437-63.878906-83.175781-63.878906-15.40625 0-30.523437 4.125-43.722656 11.929688-3.566406 2.109374-4.75 6.714843-2.644531 10.289062 2.105468 3.574219 6.710937 4.757812 10.273437 2.648438 10.886719-6.441407 23.367188-9.84375 36.09375-9.84375 10.667969 0 21.171875 2.394531 30.707031 6.96875-3.382812 8.984374-11.132812 27.027343-24.3125 44.609374-23.734374 31.65625-53.058593 46.566407-87.167968 44.285157-2.367188-.160157-3.429688-1.84375-3.777344-2.5625-.339844-.699219-.984375-2.53125.316406-4.433594 11.019532-16.074219 15.070313-33.835937 15.597656-36.320313 2.261719-8.355468 6-16.15625 11.109376-23.191406 2.4375-3.355468 1.695312-8.054687-1.652344-10.492187-3.351563-2.441407-8.039063-1.703125-10.476563 1.652343-6.238281 8.589844-10.789062 18.125-13.523437 28.34375-.042969.152344-.078125.308594-.109375.464844-.03125.164063-3.402344 16.589844-13.308594 31.042969-3.996094 5.824219-5.78125 16.210937 2.480469 24.984375-2.386719 14.519531-7.183594 34.097656-16.832032 52.132812-4.574218 8.546876-4.984374 18.566407-1.128906 27.492188 3.894532 9.015625 12.597656 16.648438 28.480469 20.054688 1.222656 5.496093 3.789063 12.257812 9.15625 17.886718 6.835937 7.171875 16.371094 10.808594 28.335937 10.808594zm92.207032-15.023438h-92.207032c-25.652343 0-23.578124-23.503906-23.578124-23.617187 0-11.019531 4.886718-21.359375 13.21875-28.367187 12.785156 9.855468 28.773437 15.730468 46.117187 15.730468h20.695313c17.34375 0 33.335937-5.878906 46.121093-15.738281 8.351563 6.996094 13.210938 17.265625 13.210938 28.375.003906.113281.910156 23.617187-23.578125 23.617187zm53.671875-39.691406c-2.066407 4.78125-8.269531 10.644532-15.386719 10.734375-1.304688-12.949219-7.332031-24.765625-16.941406-33.378906 7.957031-9.132813 13.757812-20.179687 16.632812-32.359375 3.105469 12.742188 7.851563 27 15.113282 40.570312 2.394531 4.484376 2.609374 9.742188.582031 14.433594zm-56.113281-163.980468c12.066406 9.4375 20.945312 22.632812 24.972656 37.515624.527344 2.484376 4.578125 20.246094 15.601562 36.320313 1.300782 1.898437.652344 3.730469.3125 4.433594-.347656.714843-1.410156 2.402343-3.777344 2.5625-26.285156 1.746093-49.910156-6.835938-70.296874-25.519531 2.710937-3.082032 5.351562-6.324219 7.917968-9.746094 12.941406-17.261719 21.09375-35.050782 25.269532-45.566406zm-43.679688 66.0625c12.3125 11.390624 25.695312 19.558593 40.058594 24.472656-.082032.449218-.132813 13.851562-.132813 13.851562 0 4.148438 3.355469 7.511719 7.5 7.511719 4.140625 0 7.5-3.363281 7.5-7.511719v-9.988281c5.230469.945313 10.574219 1.488281 16.03125 1.636719-2.3125 31.464844-28.59375 56.359375-60.589843 56.359375h-20.695313c-32 0-58.285156-24.902344-60.59375-56.375 5.445313-.160157 10.789063-.730469 16.035156-1.695313v10.0625c0 4.148438 3.355469 7.507813 7.5 7.507813 4.140625 0 7.5-3.359375 7.5-7.507813 0 0-.054687-13.480468-.152343-13.964844 14.386718-4.945312 27.816406-13.105468 40.039062-24.359374zm-98.292969 97.917968c-2.027343-4.691406-1.8125-9.949218.585938-14.433594 6.726562-12.570312 11.285156-25.734374 14.386719-37.695312 3.066406 11.046875 8.574218 21.082031 15.898437 29.492188-9.496094 8.546874-15.519531 20.285156-16.914063 33.019531-6.621093-1.023438-11.890624-5.601563-13.957031-10.382813zm0 0"/><path d="m357.902344 431.929688c0-10.957032 4.761718-21.238282 12.898437-28.246094 12.664063 9.777344 28.511719 15.613281 45.703125 15.613281h20.46875c41.371094 0 75.027344-33.710937 75.027344-75.140625v-36.945312c0-47.082032-38.246094-85.390626-85.261719-85.390626-47.011719 0-85.257812 38.308594-85.257812 85.390626 0 0 .015625 37.507812.019531 37.792968-20.757812 6.683594-35.140625 25.964844-35.140625 48.484375 0 23.121094 15.921875 43.398438 37.820313 49.257813 1.292968 5.363281 3.867187 11.769531 8.972656 17.121094 6.777344 7.101562 16.191406 10.703124 27.988281 10.703124h91.195313c11.796874 0 21.214843-3.601562 27.988281-10.703124 10.328125-10.824219 10.308593-25.953126 10.253906-28.054688-.011719-5.289062-.808594-10.503906-2.363281-15.511719-1.230469-3.960937-5.433594-6.171875-9.390625-4.9375s-6.164063 5.445313-4.933594 9.40625c1.121094 3.59375 1.6875 7.347657 1.6875 11.164063 0 .082031.585937 23.617187-23.242187 23.617187h-91.195313c-23.882813-.003906-23.238281-23.503906-23.238281-23.621093zm79.070312-27.65625h-20.46875c-33.097656 0-60.023437-26.96875-60.023437-60.117188v-16.519531c8.753906 1.378906 18.179687 2.28125 27.898437 2.28125 26.121094 0 54.320313-6.492188 77.117188-27.523438 10.449218 8.707031 22.488281 14.117188 35.503906 15.914063v25.847656c0 33.148438-26.929688 60.117188-60.027344 60.117188zm48.65625-135.371094c6.476563 9.949218 10.511719 21.625 11.238282 34.183594-9.167969-1.625-17.570313-5.53125-25.117188-11.679688 6.511719-8.097656 10.957031-16.105469 13.878906-22.503906zm-58.890625-32.058594c18.546875 0 35.421875 7.246094 47.992188 19.042969-2.410157 6.800781-8.695313 21.269531-21.921875 34.0625-22.777344 22.035156-55.167969 29.570312-96.328125 22.464843v-5.203124c0-38.800782 31.515625-70.367188 70.257812-70.367188zm-83.539062 189.710938c-12.898438-5.554688-21.839844-18.511719-21.839844-33.0625 0-14.820313 8.828125-27.652344 21.898437-33.132813 2.734376 12.421875 8.550782 23.691406 16.597657 32.980469-9.410157 8.605468-15.347657 20.417968-16.65625 33.214844zm0 0"/><path d="m36.125 211.929688c16.359375 1.746093 24.398438-8.019532 26.394531-17.304688.035157-.148438 2.636719-11.308594 10.542969-22.929688.78125 1.40625 1.734375 2.773438 2.894531 4.042969 2.761719 3.019531 7.789063 6.621094 16.074219 6.621094 12.160156 0 22.25-9.910156 22.488281-22.09375.625-32.660156.609375-32.953125.589844-33.320313-.550781-9.84375-7.328125-18.109374-16.863281-20.5625l-37.222656-9.585937c-5.90625-1.527344-22.417969-3.023437-27.449219 16.417969-3.777344 14.585937 6.917969 22.757812 9.082031 24.140625-4.480469 5.375-8.527344 11.273437-12.097656 17.625-2.03125 3.613281-.753906 8.195312 2.855468 10.230469 3.605469 2.03125 8.183594.753906 10.214844-2.863282 4.855469-8.636718 10.699219-16.28125 17.359375-22.714844 2.109375-2.035156 2.871094-5.109374 1.90625-7.878906-.964843-2.769531-3.417969-4.71875-6.332031-5-1.425781-.160156-10.160156-2.550781-8.359375-10.214844 1.523437-6.5 7.074219-5.714843 9.078125-5.195312l37.230469 9.585938c3.117187.804687 5.347656 3.46875 5.605469 6.667968-.023438 2.296875-.363282 20.355469-.59375 32.371094-.082032 4.0625-3.445313 7.429688-7.496094 7.367188-7.757813-.125-7.570313-9.667969-7.449219-11.292969.273437-3.101563-1.394531-6.054688-4.191406-7.417969-2.796875-1.359375-6.148438-.851562-8.414063 1.28125-18.839844 17.730469-24.058594 41.28125-24.105468 41.507812-.695313 3.238282-3.5 6.445313-9.238282 5.703126-5.046875-.652344-5.875-6.78125-5.425781-8.863282.871094-4.054687-1.707031-8.050781-5.753906-8.925781-4.046875-.867187-8.164063 1.683594-8.910157 5.765625-3.609374 19.703125 11.75 26.214844 17.585938 26.835938zm0 0"/><path d="m400.175781 139.207031c.117188.089844 9.171875 7.105469 16.433594 19.140625-1.605469.125-11.011719.09375-17.578125 12.835938-5.574219 10.824218-.261719 24.386718 10.703125 29.675781 29.386719 14.160156 29.664063 14.257813 30.007813 14.402344 11.671874 4.949219 19.820312.289062 25.683593-6.800781l24.195313-29.910157c7.488281-9.554687 9.175781-22.546875-3.488282-31.832031-12.144531-8.902344-23.535156-3.167969-25.691406-1.777344-12.132812-25.453125-30.949218-40.054687-33.3125-41.824218-4.96875-3.714844-21.390625-10.683594-31.683594 4.847656-8.054687 12.15625-3.800781 24.863281 4.730469 31.242187zm7.675781-22.796875c3.617188-5 8.601563-2.527344 10.300782-1.257812.921875.691406 22.625 17.164062 32.585937 45.542968.972657 2.765626 3.445313 4.742188 6.359375 5.015626 2.917969.273437 5.707032-1.152344 7.175782-3.6875.738281-1.230469 5.894531-8.1875 12.753906-3.363282 4.382812 3.078125 2.242187 8.820313.9375 10.433594l-24.195313 29.914062c-2.027343 2.503907-5.375 3.425782-8.386719 2.332032-2.070312-.980469-18.328124-8.804688-29.144531-14.015625-3.652343-1.761719-5.355469-6.246094-3.566406-9.886719 3.394531-6.90625 11.925781-2.875 13.351563-2.089844 2.703124 1.542969 6.078124 1.253906 8.480468-.730468 2.398438-1.980469 3.332032-5.242188 2.335938-8.195313-8.273438-24.574219-27.476563-39.09375-27.65625-39.226563-2.648438-1.980468-4.726563-6.089843-1.332032-10.785156zm0 0"/><path d="m294.789062 462.480469c-.152343.007812-11.585937.449219-24.867187-4.105469 1.144531-1.128906 9.203125-6.714844 5.238281-21.144531-3.222656-11.746094-15.433594-18.867188-27.230468-15.867188-31.605469 8.046875-31.882813 8.140625-32.234376 8.257813-9.332031 3.140625-15.496093 11.875-15.332031 21.730468l.632813 38.488282c.097656 6.105468 3.445312 22.160156 23.082031 22.160156 15.832031 0 20.074219-12.707031 20.835937-15.15625 25.640626 11.71875 49.417969 10.867188 52.351563 10.632812 21.195313-1.667968 21.765625-18.242187 21.179687-24.089843-1.460937-14.519531-13.039062-21.519531-23.65625-20.90625zm1.636719 30c-1.140625-.054688-28.320312 1.40625-54.175781-13.957031-2.519531-1.496094-5.675781-1.390626-8.085938.277343-2.410156 1.664063-3.632812 4.582031-3.132812 7.46875.183594 1.046875 1.636719 10.722657-7.628906 10.722657-6.386719 0-7.375-5.320313-7.40625-7.394532l-.632813-38.492187c-.054687-3.222657 1.921875-6.085938 4.933594-7.179688 2.214844-.582031 19.691406-5.039062 31.324219-8 3.933594-1 7.988281 1.375 9.078125 5.285157 2.140625 7.699218-7.300781 9.871093-8.898438 10.183593-3.0625.554688-5.460937 2.949219-6.03125 6.011719-.570312 3.066406.808594 6.164062 3.464844 7.789062 22.089844 13.515626 46.125 12.300782 46.351563 12.285157 3.328124-.195313 7.355468 1.644531 7.933593 7.410156.234375 2.335937-1.230469 7.871094-7.09375 7.589844zm0 0"/></svg>